# xmcd CD database file
#
# Track frame offsets:
#	150
#	24292
#	44622
#	113000
#	137838
#	160676
#	203469
#	231492
#	256518
#	283852
#
# Disc length: 4413 seconds
#
# Revision: 0
# Processed by: cddbd v1.5.2PL0 Copyright (c) Steve Scherf et al.
# Submitted via: CDex 1.70beta2
#
DISCID=80113b0a
DTITLE=Northwoods Improvisers - Spinning
DYEAR=1996
DGENRE=Jazz
TTITLE0=Firepit
TTITLE1=Hard Count
TTITLE2=Entropy Puzzle
TTITLE3=Spinning
TTITLE4=Red Shift
TTITLE5=Forest Rain
TTITLE6=Free
TTITLE7=Blues For Sonny Clark
TTITLE8=Afghanistan
TTITLE9=Living Space
EXTD=YEAR: 1996
EXTT0=
EXTT1=
EXTT2=
EXTT3=
EXTT4=
EXTT5=
EXTT6=
EXTT7=
EXTT8=
EXTT9=
PLAYORDER=
